<svg xmlns="http://www.w3.org/2000/svg" viewBox="0 0 631.23 932.47"><defs><style>.cls-1{fill:#8e9775;}.cls-2,.cls-7{fill:#e28413;}.cls-3{fill:#999d7d;}.cls-4,.cls-6{font-size:208.96px;font-family:Posterama1927-Regular, "Posterama 1927";letter-spacing:0.07em;}.cls-4,.cls-8{fill:#4a5d23;}.cls-5{letter-spacing:0.02em;}.cls-6{fill:none;stroke:#4a5d23;stroke-width:8.03px;}.cls-7{font-size:166.84px;font-family:BreathingPersonalUseOnly-Reg, Breathing Personal Use Only;letter-spacing:0.07em;}</style></defs><g id="Layer_2" data-name="Layer 2"><g id="Layer_1-2" data-name="Layer 1"><path class="cls-1" d="M517.94,225.39c-.91,4.24-4,7.11-6.44,10.39a170.52,170.52,0,0,1-21,23.5c-10.05,9.31-21.27,17.06-32.78,24.43a177.55,177.55,0,0,1-59,23.85c-6.67,1.44-13.34,3.13-20.08,3.73s-13.19,1.31-20,.7c-12.53-1.13-24.66-3.8-36.77-6.95-11.12-2.89-21.19-8.15-31.34-13.3-6.73-3.43-12.82-7.92-19.37-11.65-2.22-1.27-4.49-2.45-6.74-3.68-.61-.34-1.31-.66-1.33-1.5s.8-1.06,1.42-1.34a200.58,200.58,0,0,1,30.3-11.29q22.89-6.13,42.93,6.43c7.21,4.54,14.21,9.41,21.78,13.39,10.18,5.35,20.74,9.3,32.34,9.85,1.26.06,2.43,1,3.73.36.1-.05.15-.21.34-.5-.59-1-1.72-1.18-2.74-1.51a136.16,136.16,0,0,1-37.64-19.75c-6.32-4.6-12.7-9.12-19.06-13.67-.67-.48-1.68-.8-1.35-1.85s1.41-.67,2.2-.8c7.2-1.19,14.47-.78,21.71-1,6.11-.16,12.2-.74,18.33-.67,3.72,0,7.37.58,11.05.82a11,11,0,0,1,4,1.43c6.83,3.21,13.18,7.31,19.87,10.79,8.57,4.46,17.62,7.1,27.41,6.52.52,0,1.18.11,1.41-.85C428,267.46,416.76,260,405.43,252.4c3.89-1.12,7.78-.78,11.62-.73s7.65-.57,11.48-.8,8-.44,11.9-.93c3.79-.48,7.57-1.18,11.3-2s7.69-2,11.49-3.08,7.29-2.31,11.17-3.56a2.29,2.29,0,0,0-2.44-.41,99.6,99.6,0,0,1-22,2.43c-11.1.19-22.18,1.17-33.29.71-6.5-.28-13-1-19.75-1.08,8.5-7.51,16.88-14.95,21.64-25.39a1.35,1.35,0,0,0-2.16.23c-6.12,6.56-13.91,10.75-21.54,15.15-5.42,3.12-11.45,5.1-16.46,9-1.08.84-2.46.59-3.73.59-5.27,0-10.55.19-15.81,0s-10.2,1.07-15.33.68c-.81-.07-1.86.28-2.32-.62-.62-1.23.56-1.78,1.28-2.35a154.19,154.19,0,0,0,13.38-12.55,92.86,92.86,0,0,0,14-18.24,7.87,7.87,0,0,0,1.17-4,7.19,7.19,0,0,0,3.24.84c17.71-.31,34.77,3.6,51.66,8.28,9.17,2.54,18.09,6,27.2,8.76a142.07,142.07,0,0,0,25.46,5.16c12.62,1.46,25-.36,37.24-3A3.29,3.29,0,0,1,517.94,225.39Z"/><path class="cls-1" d="M533,265.21c.72,1.5.46,3.09.29,4.62-.73,6.63-1.75,13.22-2.94,19.79-2.5,13.76-6.74,27-11.51,40.1-2.39,6.55-5.73,12.68-8.82,18.91a180.11,180.11,0,0,1-18.7,30A237.12,237.12,0,0,1,473,399.34c-7.46,7.66-15.71,14.39-23.79,21.33-3.33,2.86-7.28,4.9-11.05,7.17-6.21,3.74-12.35,7.59-18.78,11-1,.5-1.88,1.3-3.06.8a1.5,1.5,0,0,1,.72-1.55c10.94-7.79,19.06-18.23,27.15-28.71A171.12,171.12,0,0,0,467.67,367,153,153,0,0,0,476.76,333c1-7,1.13-14.14,1.7-21.21,5.51-4,11.12-7.87,16.51-12a256.93,256.93,0,0,0,35.63-33C531.25,266,531.84,265.16,533,265.21Z"/><path class="cls-2" d="M311,422.84c.22-19.74,8.31-34.53,23.55-45.36,7-5,15.08-7.91,23.39-10,3.91-1,4.87-.37,5.31,3.76,1.56,14.4.26,28.48-6.74,41.42-7.6,14.05-19.59,22.55-35.12,26.07-4.8,1.09-6.81-.07-8.58-4.6A25,25,0,0,1,311,422.84Z"/><path class="cls-2" d="M260.74,380.44c.37-3.39.63-6.94,1.17-10.44.43-2.73,1-3.06,3.75-2.82,4.16.37,8,1.9,11.84,3.44,8.74,3.58,16.83,8.25,23.29,15.35a57.56,57.56,0,0,1,6.06,7.67,7.14,7.14,0,0,1,.86,6.5c-.67,2-1.2,4.09-1.86,6.11-2.67,8.2-2.42,16.52-.94,24.86.29,1.66,1.11,3.21,1.54,4.86.58,2.22-.15,3.13-2.25,2.67-8.28-1.81-15.94-4.85-22.74-10.15-12.62-9.83-18.45-23-19.92-38.56C261.24,386.82,261,383.71,260.74,380.44Z"/><path class="cls-3" d="M364.84,207.34c.23,1.59-1.08,2.24-2,3-5.88,5.34-11.59,10.86-17.23,16.45a136.7,136.7,0,0,1-18.26,14.6,16.09,16.09,0,0,1-4.71,1.89c-7.52,2.25-15.42,2.22-23,4.1-4.25,1.06-8.52,2-12.77,3.07a2.61,2.61,0,0,1-2.05-.14c0-1.81,1.39-2.76,2.46-3.83,14.49-14.61,31-26.34,50.22-33.83A80.82,80.82,0,0,1,360.66,207C362.06,206.92,363.5,206.56,364.84,207.34Z"/><path class="cls-2" d="M312.54,389a3.28,3.28,0,0,1-2-1.43c-4.45-5.58-9.67-10.4-14.88-15.22-1.72-1.6-1.75-3.29-.86-5.38,2.33-5.45,6.14-9.86,9.85-14.34,1.8-2.19,3.75-4.26,5.59-6.42,1.29-1.51,2.48-1.54,3.93-.16a70.42,70.42,0,0,1,6.48,7.34,78.56,78.56,0,0,1,9.14,13.84c1.58,3.18,1.41,4.43-1.49,6.53a59.55,59.55,0,0,0-13.42,13.56C313.8,388.76,313.24,389,312.54,389Z"/><path class="cls-3" d="M407.68,142.49c.3-.54.42-.42.45.12l-.27.08Z"/><text class="cls-4" transform="translate(4.02 706.26) scale(1.07 1)">GE<tspan class="cls-5" x="302.77" y="0">T</tspan><tspan x="426.68" y="0">A</tspan></text><text class="cls-6" transform="translate(4.02 706.26) scale(1.07 1)">GE<tspan class="cls-5" x="302.77" y="0">T</tspan><tspan x="426.68" y="0">A</tspan></text><text class="cls-7" transform="translate(95.61 824.03)">oasis</text><path class="cls-1" d="M484.53,101.61c-1,3.35-3.89,5.23-6.43,7.1-10.44,7.7-22.12,12.45-34.88,15.15-8.66,1.84-17.27,1.76-25.89,1.32-7.65-.39-15.07-2.66-22.52-4.5-13.57-3.36-26.54-8.41-39.58-13.32-15-5.65-29.86-11.88-45.54-15.65-6.49-1.55-13-3.16-19.5-4.48a63.34,63.34,0,0,0-11-1.24c-8.83-.18-17.67-.25-26.49,0-7.26.2-14.39,1.82-21.36,3.67a211,211,0,0,0-23.9,7.81c-6.66,2.65-12.6,6.54-18.71,10.16a117.23,117.23,0,0,0-24.11,18.86,159.91,159.91,0,0,0-24,31.75,149.1,149.1,0,0,0-12.35,28.49,175.49,175.49,0,0,0-6.7,26.81c-.79,4.9-1.8,9.85-1.83,14.77,0,8.08-1.78,16.09-.51,24.25.77,5,.26,10.21,1,15.3.92,6.31,1.65,12.62,2.85,18.91,2,10.66,5.42,20.89,8.7,31.15,2.29,7.17,5.68,13.95,8.82,20.81,5.35,11.65,12.24,22.43,18.92,33.32.82,1.34,1.5,2.82,3.43,2.77,1,7.23,3.17,14.23,4.62,21.39-1.09.15-1.58,0-1.92-.58-5.35-8.42-11.92-15.93-17.83-23.93A166.83,166.83,0,0,1,129,339.27a258.44,258.44,0,0,1-13-36.09,196.59,196.59,0,0,1-4.7-24.27,242,242,0,0,1-2.27-33.15,206.92,206.92,0,0,1,5.45-46.91,209.44,209.44,0,0,1,21-55.26,190.14,190.14,0,0,1,22.65-32,223.66,223.66,0,0,1,48.6-42c13.95-9,29-15.74,44.6-21.27a233.1,233.1,0,0,1,43.34-10.88A157.15,157.15,0,0,1,313,36.14c12.67-.4,25.33-.3,37.92,1.45,23,3.2,44.88,10.15,66.1,19.42a225.14,225.14,0,0,1,46,26.84q9.16,6.95,18.23,14C482.5,98.91,484,99.84,484.53,101.61Z"/><path class="cls-8" d="M553.26,237.36c0-.76.3-1.75-1-2.15-.38.51-.83,1-1.18,1.62a246.63,246.63,0,0,1-15.34,23.1,12.35,12.35,0,0,0-2.72,5.28c.72,1.5.46,3.09.29,4.62-.73,6.63-1.75,13.22-2.94,19.79-2.5,13.76-6.74,27-11.51,40.1-2.39,6.55-5.73,12.68-8.82,18.91a180.11,180.11,0,0,1-18.7,30A237.12,237.12,0,0,1,473,399.34c-7.46,7.66-15.71,14.39-23.79,21.33-3.33,2.86-7.28,4.9-11.05,7.17-6.21,3.74-12.35,7.59-18.78,11-1,.5-1.88,1.3-3.06.8a1.5,1.5,0,0,1,.72-1.55c10.94-7.79,19.06-18.23,27.15-28.71A171.12,171.12,0,0,0,467.67,367,153,153,0,0,0,476.76,333c1-7,1.13-14.14,1.7-21.21a5.36,5.36,0,0,0-1.24.3c-5.34,2.92-10.27,6.55-15.85,9-1.32.59-1.56,1.9-1.81,3.19-.76,4.06-1.47,8.13-2.42,12.14-1.74,7.34-3.26,14.76-6,21.8a170.63,170.63,0,0,1-37.7,58.39A158.67,158.67,0,0,1,371,447.33a115.83,115.83,0,0,1-33.6,10.85c-18.83,2.93-37.71,2.92-56.39-1.75a111.86,111.86,0,0,1-25.85-9.88c-16.67-8.94-31-20.76-41.64-36.54A87.47,87.47,0,0,1,198,362.39a75.53,75.53,0,0,1,9.79-38.87c5.66-10.29,12.63-19.64,22.76-26,12.14-7.68,24.59-10,37.7-2a230.37,230.37,0,0,0,20.87,11.66c12.44,6,25.15,11.38,38.81,14.12,10.75,2.17,21.46,4.43,32.5,4.43a209.19,209.19,0,0,0,26-1.51A187.67,187.67,0,0,0,418.83,317c23.34-7.25,44.44-18.94,64-33.42,13.82-10.2,25.85-22.3,36.79-35.47s19.25-27.84,26.52-43.2c1.3-2.74,2.13-5.7,3.37-9.08a21.17,21.17,0,0,0-6.57,2.27,97.88,97.88,0,0,1-47.52,7.95,55.16,55.16,0,0,1-6.74-1,261,261,0,0,1-34-9.92q-15.88-5.64-32-10.55c-14.21-4.34-28.69-7.26-43.65-7.2a156.47,156.47,0,0,0-27.55,2.88,136.12,136.12,0,0,0-37.79,13c-23.17,11.91-41.32,29.51-56.48,50.43-.2.27-.42.79.54,1.2,5.82-2.17,11.85-4.66,18-6.62a17.68,17.68,0,0,0,7.91-4.69c14.9-15.78,32.41-27.69,52.92-35,10.5-3.73,21.28-6.38,32.48-6.84a149,149,0,0,1,44.8,4.9c12,3.2,23.51,7.65,35.23,11.57,14.45,4.84,28.95,9.52,44.11,11.48,8,1,16.19,1.21,24.21-.79a10.17,10.17,0,0,1,6,0,24.63,24.63,0,0,1-5.57,6.4c-.91,4.24-4,7.11-6.45,10.39a169.8,169.8,0,0,1-21,23.5c-10.05,9.31-21.27,17.06-32.78,24.43a177.55,177.55,0,0,1-59,23.85c-6.67,1.44-13.34,3.13-20.08,3.73s-13.19,1.31-20,.7c-12.53-1.13-24.66-3.8-36.77-6.95-11.12-2.89-21.19-8.15-31.34-13.3-6.73-3.43-12.82-7.92-19.37-11.65-2.22-1.27-4.49-2.45-6.74-3.68-.61-.34-1.31-.66-1.33-1.5s.8-1.06,1.42-1.34a200.58,200.58,0,0,1,30.3-11.29q22.89-6.13,42.93,6.43c7.21,4.54,14.21,9.41,21.78,13.39,10.18,5.35,20.74,9.3,32.34,9.85,1.26.06,2.43,1,3.73.36.1-.05.15-.21.34-.5-.59-1-1.72-1.18-2.74-1.51a136.16,136.16,0,0,1-37.64-19.75c-6.32-4.6-12.7-9.12-19.06-13.67-.67-.48-1.68-.8-1.35-1.85s1.41-.67,2.2-.8c7.2-1.19,14.47-.78,21.71-1,6.11-.16,12.2-.74,18.33-.67,3.72,0,7.37.58,11.05.82a11,11,0,0,1,4,1.43c6.83,3.21,13.18,7.31,19.87,10.79,8.57,4.46,17.62,7.1,27.41,6.52.52,0,1.18.11,1.41-.85C428,267.46,416.76,260,405.43,252.4c3.89-1.12,7.78-.78,11.62-.73s7.65-.57,11.48-.8,8-.44,11.9-.93c3.79-.48,7.57-1.18,11.3-2s7.69-2,11.49-3.08,7.29-2.31,11.17-3.56a2.29,2.29,0,0,0-2.44-.41,99.6,99.6,0,0,1-22,2.43c-11.1.19-22.18,1.17-33.29.71-6.5-.28-13-1-19.75-1.08,8.5-7.51,16.88-14.95,21.64-25.39a1.35,1.35,0,0,0-2.16.23c-6.12,6.56-13.91,10.75-21.54,15.15-5.42,3.12-11.45,5.1-16.46,9-1.08.84-2.46.59-3.73.59-5.27,0-10.55.19-15.81,0s-10.2,1.07-15.33.68c-.81-.07-1.86.28-2.32-.62-.62-1.23.56-1.78,1.28-2.35a154.19,154.19,0,0,0,13.38-12.55,92.86,92.86,0,0,0,14-18.24,7.87,7.87,0,0,0,1.17-4c-2.32-.15-4,1.83-6.22,1.94.23,1.59-1.08,2.24-2,3-5.88,5.34-11.59,10.86-17.23,16.45a136.7,136.7,0,0,1-18.26,14.6,16.09,16.09,0,0,1-4.71,1.89c-7.52,2.25-15.42,2.22-23,4.1-4.25,1.06-8.52,2-12.77,3.07a2.61,2.61,0,0,1-2.05-.14,29.78,29.78,0,0,1-4.24,2A168.45,168.45,0,0,0,258.79,261c-16.71,7.56-32.31,16.81-45.75,29.43-12.8,12-22.27,26.28-27.53,43.06a91.85,91.85,0,0,0-1.8,49.76c3.91,16.29,10.73,31.18,21.27,44.26,3.52,4.36,7.32,8.48,11,12.71-33.84-15.74-60.64-39.61-82.54-69.19-1.79-1.91-4.94-6.63-8.6-12.83-.15-.21-.3-.41-.44-.62l.12.06c-1.46-2.49-3-5.22-4.55-8.09l-.73-1.36c-.73-1.09-1.48-2.17-2.15-3.3a37.3,37.3,0,0,1-2.88-6.58c-2.62-5.46-4.41-9.8-4.9-12a1.67,1.67,0,0,0-.08-.2c-3-7.69-5.89-15.42-8.15-23.36A250.85,250.85,0,0,1,94.41,271a211.07,211.07,0,0,1-.4-56.64A214.27,214.27,0,0,1,109.4,156c5.86-13.81,12.6-27.12,21.26-39.34,15.57-22,33.64-41.56,56.05-56.86C202.64,48.88,219.35,39.49,237.57,33A235.51,235.51,0,0,1,289.84,21a228.26,228.26,0,0,1,48.6-.58A214.54,214.54,0,0,1,387.57,31a224.81,224.81,0,0,1,29.85,12.6A233.13,233.13,0,0,1,458,70.27a182.42,182.42,0,0,1,27.7,27.65c1.76,2.21,1.69,2.35-1.14,3.69-1,3.35-3.89,5.23-6.43,7.1-10.44,7.7-22.12,12.45-34.88,15.15-8.66,1.84-17.27,1.76-25.89,1.32-7.65-.39-15.07-2.66-22.52-4.5-13.57-3.36-26.54-8.41-39.58-13.32-15-5.65-29.86-11.88-45.54-15.65-6.49-1.55-13-3.16-19.5-4.48a63.34,63.34,0,0,0-11-1.24c-8.83-.18-17.67-.25-26.49,0-7.26.2-14.39,1.82-21.36,3.67a211,211,0,0,0-23.9,7.81c-6.66,2.65-12.6,6.54-18.71,10.16a117.23,117.23,0,0,0-24.11,18.86,159.91,159.91,0,0,0-24,31.75,149.1,149.1,0,0,0-12.35,28.49,175.49,175.49,0,0,0-6.7,26.81c-.79,4.9-1.8,9.85-1.83,14.77,0,8.08-1.78,16.09-.51,24.25.77,5,.26,10.21,1,15.3.92,6.31,1.65,12.62,2.85,18.91,2,10.66,5.42,20.89,8.7,31.15,2.29,7.17,5.68,13.95,8.82,20.81,5.35,11.65,12.24,22.43,18.92,33.32.82,1.34,1.5,2.82,3.43,2.77a48.55,48.55,0,0,1-.76-8.92c0-6.27-.18-12.55.15-18.8a22.7,22.7,0,0,0-2.78-11.81c-11.32-22.28-18.74-45.71-21.32-70.66a178.13,178.13,0,0,1,2.76-56,146.32,146.32,0,0,1,14.43-38.66c6.37-11.83,14-22.78,23.87-32C201,117.51,227,106.81,256.49,104.43c22.67-1.83,44.48,2.61,65.72,10.28,13.11,4.74,26,10.19,39.08,14.9,15.16,5.43,30.49,10.14,46.39,12.88.3-.54.42-.42.45.12a131,131,0,0,0,30.6.93,98.36,98.36,0,0,0,36.16-10.73c14.15-7.35,25.28-18.29,35.24-30.51,2.11-2.59,2-2.92-.18-5.88-9.52-12.86-20.59-24.31-32.4-35a234.61,234.61,0,0,0-43.87-30.89,231.23,231.23,0,0,0-49-20.71A256.11,256.11,0,0,0,344.6,1.69,227.77,227.77,0,0,0,312.86.05c-2-.09-5.25,0-9.26.16a130.71,130.71,0,0,0-13.26,1c-2.66.26-5,.53-6.76.78h0c-9.39.79-18.51,3-27.65,5.16C232.3,12.75,210.57,23,189.69,35c-19.36,11.18-36,25.88-51.47,41.93-13.87,14.43-25.3,30.67-35.36,48-11,18.9-18.32,39.16-23.46,60.22a228.35,228.35,0,0,0-5.88,42.21,257.21,257.21,0,0,0,3.28,58.26c3.18,18,7.91,35.51,15.39,52.21a260.36,260.36,0,0,0,23.49,42.34,232.29,232.29,0,0,0,100.64,82.49,254,254,0,0,0,42.21,13.47,240.07,240.07,0,0,0,26.08,4.37c26.21,3.11,52.23,2.63,78.19-2.58A302.75,302.75,0,0,0,403,466.64c27.5-9.6,51.67-24.66,73.48-43.71,21.37-18.67,38-41.06,51.23-66.08,6.08-11.53,10.4-23.78,14.5-36.14a226.07,226.07,0,0,0,9.45-42A246.24,246.24,0,0,0,553.26,237.36Z"/></g></g></svg>